<svg xmlns="http://www.w3.org/2000/svg" preserveAspectRatio="xMinYMin meet" viewBox="0 0 350 350"><style>.base { fill: white; font-family: serif; font-size: 14px; }.classes { fill: rgb(246, 246, 0); font-family: serif; font-size: 24px; }.race { fill: rgb(8, 19, 241); font-family: serif; font-size: 14px; }.equip { fill: rgb(44, 143, 52); font-family: serif; font-size: 14px; }.slash { fill: red; font-family: HelveticaNeue-Bold, Helvetica Neue; font-size: 20px; }.attributes { fill: olive; font-family: HelveticaNeue-Bold, Helvetica Neue; font-size: 14px; }.logo { fill: rgb(0 255 0); font-family: HelveticaNeue-Bold,Helvetica Neue; font-size: 10px; }</style><rect width="100%" height="100%" fill="transparent" /><text x="20" y="40" class="base"></text> <text x="20" y="40" class="classes">Demon Hunter</text><text x="20" y="80" class="race">Race:</text> <text x="60" y="80" class="base">Elf</text><text x="20" y="100" class="race">Alignment:</text> <text x="95" y="100" class="base">Chaotic neutral</text><text x="20" y="120" class="slash">------------------</text><text x="20" y="140" class="equip">Weapon:</text> <text x="70" y="140" class="base">Warglaive of Azzinoth</text><text x="20" y="160" class="equip">Head:</text> <text x="60" y="160" class="base">Iron Helmet of Hypnotic</text><text x="20" y="180" class="equip">Body:</text> <text x="60" y="180" class="base">Blade Mail</text><text x="20" y="200" class="equip">Foot:</text> <text x="60" y="200" class="base">Thunder Boots</text><text x="20" y="220" class="equip">Artifact:</text> <text x="90" y="220" class="base">Cross Necklace</text><text x="20" y="240" class="slash">------------------</text><text x="20" y="260" class="attributes">STR:</text> <text x="60" y="260" class="base">52</text><text x="20" y="280" class="attributes">DEX:</text> <text x="60" y="280" class="base">65</text><text x="20" y="300" class="attributes">INT:</text> <text x="60" y="300" class="base">45</text><text x="120" y="260" class="attributes">CON:</text> <text x="160" y="260" class="base">38</text><text x="120" y="280" class="attributes">WIS:</text> <text x="160" y="280" class="base">51</text><text x="120" y="300" class="attributes">CHA:</text> <text x="160" y="300" class="base">41</text><text x="240" y="30" class="logo">     [</text> <text x="216" y="40" class="logo">oxxx[{:::::::::::::::::::::::::::::::::></text><text x="240" y="50" class="logo">     [</text>  <text x="222" y="75" class="logo">     [  0-Day : # Fightback_ ]</text> <text x="222" y="83" class="logo"> -------------------------</text> </svg>